# xmcd CD database file
#
# Track frame offsets:
#	150
#	13836
#	28370
#	41583
#	54440
#	69685
#	90682
#	107929
#	119900
#	137341
#
# Disc length: 2046 seconds
#
# Revision: 1
# Processed by: cddbd v1.4PL0 Copyright (c) Steve Scherf et al.
# Submitted via: CDex 1.50
#
DISCID=9207fc0a
DTITLE=Highwaymen - Highwayman
DYEAR=1985
DGENRE=Country
TTITLE0=Highwayman
TTITLE1=The Last Cowboy Song
TTITLE2=Jim, I Wore A Tie Today
TTITLE3=Big River
TTITLE4=Committed To Parkview
TTITLE5=Desparados Waiting For  A Train
TTITLE6=Deportee (Plane Wreck At Los Gatos)
TTITLE7=Welfare Line
TTITLE8=Against The Wind
TTITLE9=The Twentieth Century Is Almost Over
EXTD=YEAR: 1985
EXTT0=
EXTT1=
EXTT2=
EXTT3=
EXTT4=
EXTT5=
EXTT6=
EXTT7=
EXTT8=
EXTT9=
PLAYORDER=
